<svg xmlns="http://www.w3.org/2000/svg" height="40px" viewBox="0 -960 960 960" width="40px" fill="#000000"><path d="M662.67-379.67q-11.34-8-13.34-21.5t6-24.83q9.67-15 15.84-31.83 6.16-16.84 8.83-34.5 2.67-14.34 12.17-24Q701.67-526 716-526q14.33 0 23.67 10 9.33 10 7.33 24.33-3.67 27.67-12.83 54.34-9.17 26.66-25.17 50-8 11.33-21.5 13.5-13.5 2.16-24.83-5.84ZM520-535.33l-138.33-139q-9-9-14.34-21.5-5.33-12.5-5.33-25.84v-51q0-44.66 31.33-76 31.34-31.33 76-31.33 44.67 0 76 31.33 31.34 31.34 31.34 76v213q0 22.34-20.5 31.17-20.5 8.83-36.17-6.83Zm-84 382V-252q-94.67-11.33-163.5-77.33t-80.83-162.34Q189.67-506 199-516q9.33-10 23.67-10 14.33 0 23.83 9.83 9.5 9.84 12.17 24.17 12.66 77.33 72.83 126.67Q391.67-316 469.33-316q37.34 0 70.5-11.83 33.17-11.84 60.84-32.84L648.33-313q-30.33 25-67.16 40.5-36.84 15.5-78.5 20.5v98.67q0 14.33-9.5 23.83-9.5 9.5-23.84 9.5-14.33 0-23.83-9.5-9.5-9.5-9.5-23.83Zm360 76L64.67-808.67q-9-9-9-22t9-22q9-9 22-9t22 9L840-121.33q9 9 9 22t-9 22q-9 9-22 9t-22-9Z"/></svg>